<?xml version="1.0" encoding="UTF-8" standalone="no"?>
<!-- icon666.com - MILLIONS vector ICONS FREE -->

<svg
   version="1.1"
   id="Layer_1"
   x="0px"
   y="0px"
   viewBox="0 0 512 512"
   style="enable-background:new 0 0 512 512;"
   xml:space="preserve"
   sodipodi:docname="geoloc.svg"
   inkscape:version="1.2.2 (b0a8486541, 2022-12-01)"
   xmlns:inkscape="http://www.inkscape.org/namespaces/inkscape"
   xmlns:sodipodi="http://sodipodi.sourceforge.net/DTD/sodipodi-0.dtd"
   xmlns="http://www.w3.org/2000/svg"
   xmlns:svg="http://www.w3.org/2000/svg"><defs
     id="defs102"><linearGradient
       id="linearGradient15671"
       inkscape:swatch="solid"><stop
         style="stop-color:#00ffd1;stop-opacity:1;"
         offset="0"
         id="stop15669" /></linearGradient><linearGradient
       id="linearGradient4402"
       inkscape:swatch="solid"><stop
         style="stop-color:#000000;stop-opacity:1;"
         offset="0"
         id="stop4400" /></linearGradient></defs><sodipodi:namedview
     id="namedview100"
     pagecolor="#ffffff"
     bordercolor="#000000"
     borderopacity="0.25"
     inkscape:showpageshadow="2"
     inkscape:pageopacity="0.0"
     inkscape:pagecheckerboard="0"
     inkscape:deskcolor="#d1d1d1"
     showgrid="false"
     inkscape:zoom="1.6269531"
     inkscape:cx="117.09004"
     inkscape:cy="283.65907"
     inkscape:window-width="1920"
     inkscape:window-height="1008"
     inkscape:window-x="0"
     inkscape:window-y="0"
     inkscape:window-maximized="1"
     inkscape:current-layer="Layer_1" /><g
     id="g73"
     style="mix-blend-mode:normal;fill:#00a6ff;stroke:#00a6ff;stroke-opacity:1;fill-opacity:1"><g
       id="g71"
       style="fill:#00a6ff;stroke:#00a6ff;stroke-opacity:1;fill-opacity:1"><path
         d="M 255.999,0 C 144.383,0 53.578,90.855 53.578,202.529 c 0,34.461 10.493,72.19 31.187,112.14 16.304,31.474 38.977,64.463 67.39,98.052 48.164,56.938 95.566,95.446 97.561,97.057 1.833,1.481 4.059,2.222 6.285,2.222 2.226,0 4.452,-0.741 6.285,-2.222 1.995,-1.611 49.397,-40.12 97.56,-97.057 28.413,-33.589 51.086,-66.578 67.39,-98.052 C 447.93,274.72 458.422,236.99 458.422,202.529 458.42,90.855 367.615,0 255.999,0 Z m 88.794,399.547 c -36.926,43.694 -74.286,76.983 -88.788,89.393 -13.766,-11.806 -48.154,-42.497 -83.41,-83.249 h 103.432 c 5.523,0 10,-4.477 10,-10 0,-5.523 -4.477,-10 -10,-10 H 155.926 C 113.072,332.235 73.578,265.808 73.578,202.529 73.578,101.882 155.412,20 255.999,20 c 100.587,0 182.421,81.882 182.421,182.529 0,71.267 -50.915,146.475 -93.627,197.018 z"
         id="path69"
         style="fill:#00a6ff;stroke:#00a6ff;stroke-opacity:1;fill-opacity:1" /></g></g><g
     id="g85"
     style="mix-blend-mode:normal;fill:#00a6ff;stroke:#00a6ff;stroke-opacity:1;fill-opacity:1"><g
       id="g83"
       style="fill:#00a6ff;stroke:#00a6ff;stroke-opacity:1;fill-opacity:1"><path
         d="m 366.286,89.537 c -2.19,-2.19 -4.437,-4.31 -6.677,-6.301 -3.188,-2.831 -6.515,-5.553 -9.882,-8.085 -23.558,-17.738 -51.065,-28.234 -80.239,-30.711 -4.168,-0.354 -8.369,-0.544 -12.599,-0.568 -0.005,0 -0.009,0 -0.014,0 -0.005,0 -0.01,0 -0.014,0 -0.121,-0.003 -0.249,-0.006 -0.345,-0.006 h -0.428 c -0.03,0 -0.059,0.004 -0.089,0.005 -0.03,0 -0.059,-0.005 -0.089,-0.005 h -0.428 c -0.066,0 -0.132,0.002 -0.198,0.004 -0.022,0.001 -0.044,-10e-4 -0.066,0 h -10e-4 c -0.003,0 -0.005,0 -0.008,0 -0.036,0.001 -0.073,0.002 -0.109,0.003 h -0.001 c -35.442,0.196 -68.785,11.975 -96.423,34.064 -0.002,0.001 -0.003,0.003 -0.005,0.004 -2.081,1.661 -4.194,3.442 -6.283,5.298 -2.238,1.989 -4.484,4.109 -6.672,6.296 -23.599,23.58 -38.764,53.385 -43.855,86.186 -1.235,7.926 -1.862,16.051 -1.862,24.146 0,41.691 16.236,80.876 45.714,110.335 2.134,2.134 4.376,4.25 6.676,6.3 2.04,1.812 4.156,3.594 6.282,5.291 8.651,6.914 17.861,12.819 27.519,17.674 0.115,0.058 0.231,0.112 0.347,0.17 0.852,0.426 1.706,0.846 2.565,1.255 0.095,0.045 0.191,0.087 0.285,0.132 0.88,0.417 1.763,0.829 2.65,1.229 0.169,0.076 0.34,0.148 0.509,0.223 0.815,0.364 1.632,0.725 2.453,1.075 0.2,0.085 0.402,0.165 0.602,0.249 0.793,0.333 1.586,0.665 2.384,0.985 0.258,0.104 0.519,0.2 0.777,0.302 0.743,0.293 1.486,0.587 2.234,0.868 0.286,0.108 0.575,0.208 0.862,0.314 0.723,0.267 1.446,0.536 2.173,0.792 0.305,0.108 0.612,0.208 0.918,0.313 0.712,0.246 1.424,0.493 2.14,0.729 0.343,0.113 0.688,0.217 1.031,0.328 0.682,0.219 1.363,0.44 2.048,0.65 0.417,0.127 0.836,0.245 1.254,0.369 0.615,0.182 1.228,0.368 1.846,0.543 0.454,0.128 0.911,0.247 1.366,0.371 0.586,0.16 1.171,0.324 1.759,0.477 0.457,0.119 0.917,0.228 1.375,0.343 0.589,0.147 1.176,0.299 1.767,0.44 0.49,0.117 0.983,0.223 1.474,0.335 0.563,0.128 1.124,0.261 1.689,0.383 0.548,0.118 1.099,0.225 1.649,0.338 0.51,0.104 1.018,0.214 1.53,0.313 0.588,0.114 1.178,0.217 1.768,0.324 0.478,0.087 0.954,0.18 1.434,0.262 0.591,0.102 1.184,0.192 1.777,0.287 0.48,0.077 0.959,0.16 1.441,0.232 0.626,0.094 1.256,0.177 1.884,0.264 0.45,0.062 0.899,0.13 1.35,0.189 0.642,0.083 1.287,0.155 1.931,0.23 0.441,0.052 0.88,0.109 1.322,0.157 0.654,0.071 1.311,0.13 1.967,0.193 0.434,0.042 0.866,0.089 1.3,0.127 0.692,0.06 1.386,0.109 2.08,0.16 0.401,0.03 0.8,0.065 1.201,0.092 0.716,0.048 1.435,0.083 2.153,0.121 0.381,0.02 0.762,0.046 1.144,0.064 0.706,0.032 1.414,0.052 2.122,0.076 0.397,0.013 0.793,0.032 1.191,0.042 0.698,0.018 1.398,0.023 2.098,0.032 0.395,0.005 0.788,0.016 1.183,0.018 0.007,0 0.015,10e-4 0.022,10e-4 0.253,0.009 0.508,0.012 0.758,0.012 0.25,0 0.504,-0.003 0.758,-0.012 0.724,-0.003 1.445,-0.018 2.167,-0.031 0.329,-0.006 0.659,-0.006 0.988,-0.014 0.732,-0.018 1.463,-0.047 2.193,-0.075 0.321,-0.012 0.643,-0.019 0.963,-0.033 0.616,-0.027 1.23,-0.065 1.844,-0.099 0.435,-0.024 0.871,-0.043 1.305,-0.07 0.569,-0.036 1.135,-0.083 1.702,-0.126 0.477,-0.036 0.955,-0.066 1.431,-0.106 0.61,-0.051 1.217,-0.113 1.826,-0.171 0.432,-0.041 0.865,-0.077 1.296,-0.122 0.487,-0.051 0.973,-0.111 1.459,-0.166 0.551,-0.063 1.103,-0.12 1.653,-0.189 0.361,-0.045 0.72,-0.098 1.081,-0.145 0.672,-0.088 1.344,-0.174 2.013,-0.271 0.317,-0.046 0.633,-0.099 0.95,-0.147 0.712,-0.107 1.424,-0.213 2.134,-0.33 0.155,-0.025 0.308,-0.055 0.462,-0.081 0.87,-0.146 1.738,-0.296 2.604,-0.457 0.08,-0.015 0.16,-0.032 0.24,-0.047 23.352,-4.375 45.332,-14.049 64.658,-28.596 3.417,-2.569 6.745,-5.291 9.896,-8.096 2.266,-2.019 4.506,-4.132 6.668,-6.288 22.275,-22.268 37.137,-50.315 42.977,-81.11 1.813,-9.58 2.732,-19.413 2.732,-29.226 C 412,158.172 395.765,118.989 366.286,89.537 Z M 292.632,68.834 c 0.371,0.104 0.743,0.211 1.116,0.318 1.07,0.308 2.135,0.628 3.197,0.962 0.252,0.079 0.506,0.154 0.758,0.235 1.268,0.407 2.528,0.836 3.783,1.281 0.337,0.12 0.673,0.244 1.009,0.367 0.999,0.363 1.994,0.738 2.984,1.126 0.327,0.127 0.654,0.252 0.98,0.383 1.237,0.495 2.468,1.006 3.69,1.538 0.254,0.111 0.506,0.227 0.759,0.339 1.012,0.447 2.018,0.908 3.02,1.381 0.347,0.164 0.693,0.327 1.039,0.494 1.215,0.587 2.424,1.185 3.622,1.809 0.06,0.031 0.119,0.064 0.178,0.095 1.149,0.601 2.289,1.223 3.424,1.858 0.335,0.188 0.669,0.378 1.003,0.568 1.001,0.571 1.996,1.155 2.984,1.753 0.151,0.092 0.304,0.18 0.455,0.272 -6.965,4.777 -14.357,8.834 -22.104,12.169 -0.303,-0.866 -0.613,-1.726 -0.908,-2.516 -0.494,-1.347 -1.005,-2.669 -1.534,-4.006 -0.48,-1.2 -0.96,-2.381 -1.451,-3.534 -1.956,-4.594 -4.06,-8.904 -6.26,-12.819 -0.377,-0.67 -0.761,-1.334 -1.164,-2.018 -0.32,-0.538 -0.633,-1.051 -0.943,-1.554 -0.073,-0.119 -0.148,-0.239 -0.221,-0.356 -0.074,-0.118 -0.148,-0.241 -0.222,-0.358 0.268,0.073 0.538,0.138 0.806,0.213 z m 7.392,131.035 c 0,6.826 -0.179,13.646 -0.534,20.29 -0.077,1.455 -0.164,2.912 -0.26,4.418 -0.019,0.294 -0.038,0.592 -0.062,0.886 -0.007,0.086 -0.013,0.172 -0.017,0.259 -0.014,0.256 -0.034,0.512 -0.058,0.831 -0.058,0.849 -0.121,1.701 -0.19,2.577 h -85.809 c -0.034,-0.437 -0.067,-0.884 -0.101,-1.326 -0.031,-0.431 -0.063,-0.864 -0.093,-1.314 -0.02,-0.261 -0.04,-0.522 -0.054,-0.783 -0.004,-0.077 -0.01,-0.154 -0.016,-0.23 -0.024,-0.296 -0.043,-0.597 -0.066,-0.959 -0.092,-1.446 -0.18,-2.903 -0.255,-4.38 -0.354,-6.624 -0.533,-13.444 -0.533,-20.27 0,-6.826 0.179,-13.646 0.53,-20.21 l 0.087,-1.594 c 0.007,-0.09 0.013,-0.179 0.018,-0.268 0.042,-0.791 0.091,-1.582 0.147,-2.432 h 86.484 c 0.054,0.811 0.104,1.621 0.148,2.437 0.004,0.088 0.011,0.175 0.018,0.263 l 0.083,1.534 c 0.354,6.625 0.533,13.445 0.533,20.271 z m -73.695,-97.434 c 0.268,-0.754 0.536,-1.5 0.832,-2.293 0.435,-1.187 0.886,-2.351 1.322,-3.454 0.424,-1.061 0.848,-2.105 1.285,-3.129 1.252,-2.943 2.566,-5.731 3.918,-8.317 0.451,-0.862 0.905,-1.702 1.363,-2.517 0.313,-0.555 0.631,-1.105 0.929,-1.611 0.581,-0.978 1.13,-1.864 1.713,-2.764 0.253,-0.396 0.517,-0.788 0.773,-1.165 l 0.503,-0.735 c 0.506,-0.725 0.984,-1.376 1.46,-1.991 0.028,-0.037 0.057,-0.074 0.085,-0.111 0.28,-0.373 0.571,-0.735 0.91,-1.148 0.498,-0.618 1.002,-1.209 1.548,-1.811 0.327,-0.366 0.66,-0.717 0.948,-1.017 0.136,-0.14 0.267,-0.276 0.411,-0.417 l 0.513,-0.5 c 0.035,-0.033 0.071,-0.067 0.105,-0.101 0.133,-0.129 0.266,-0.255 0.408,-0.384 0.166,-0.153 0.338,-0.305 0.505,-0.452 0.029,-0.025 0.058,-0.051 0.086,-0.077 0.441,-0.383 0.876,-0.739 1.325,-1.085 0.168,-0.131 0.337,-0.257 0.505,-0.383 0.062,-0.047 0.123,-0.093 0.184,-0.134 0.058,-0.039 0.116,-0.078 0.173,-0.117 0.105,-0.073 0.212,-0.144 0.318,-0.215 0.134,-0.092 0.267,-0.18 0.401,-0.264 0.118,-0.076 0.234,-0.152 0.359,-0.23 l 0.133,-0.081 c 0.122,-0.069 0.204,-0.118 0.323,-0.193 l 0.145,-0.084 c 0.016,-0.009 0.03,-0.016 0.038,-0.02 0.06,-0.033 0.121,-0.066 0.18,-0.1 0.212,-0.12 0.423,-0.226 0.609,-0.317 0.027,-0.013 0.051,-0.026 0.079,-0.039 0.052,-0.025 0.105,-0.049 0.157,-0.073 0.189,-0.09 0.378,-0.174 0.567,-0.253 0.041,-0.017 0.077,-0.034 0.119,-0.051 0.356,-0.149 0.752,-0.294 1.157,-0.422 0.123,-0.039 0.244,-0.073 0.354,-0.104 0.008,-0.002 0.016,-0.005 0.025,-0.007 0.23,-0.064 0.464,-0.118 0.697,-0.167 0.069,-0.015 0.098,-0.025 0.166,-0.041 0.047,-0.007 0.095,-0.015 0.142,-0.023 0.27,-0.045 0.544,-0.084 0.814,-0.117 0.167,-0.017 0.334,-0.024 0.5,-0.032 0.014,-0.001 0.029,-0.002 0.043,-0.003 0.013,0 0.026,-0.001 0.039,-0.002 0.027,-10e-4 0.053,-0.003 0.079,-0.004 h 0.001 c 0.111,-0.006 0.22,-0.013 0.33,-0.013 0.03,0 0.059,-0.004 0.089,-0.004 0.03,0 0.059,0.004 0.089,0.004 0.11,0 0.22,0.006 0.33,0.013 h 10e-4 c 0.026,10e-4 0.053,0.003 0.079,0.004 0.013,10e-4 0.026,10e-4 0.039,0.002 0.014,10e-4 0.029,0.002 0.043,0.003 0.167,0.008 0.334,0.015 0.5,0.032 0.271,0.032 0.544,0.071 0.814,0.117 0.047,0.008 0.06,0.011 0.107,0.019 0.068,0.016 0.137,0.031 0.206,0.045 0.248,0.052 0.494,0.116 0.739,0.18 0.021,0.006 0.043,0.012 0.065,0.018 0.054,0.015 0.103,0.03 0.152,0.045 0.033,0.01 0.07,0.021 0.108,0.033 0.422,0.135 0.815,0.277 1.21,0.443 0.247,0.102 0.495,0.215 0.742,0.332 0.299,0.15 0.594,0.303 0.924,0.483 0.005,0.003 0.021,0.011 0.039,0.021 l 0.106,0.059 c 0.119,0.075 0.239,0.147 0.361,0.217 l 0.172,0.106 c 0.346,0.215 0.692,0.443 1.038,0.684 0.043,0.029 0.129,0.088 0.171,0.117 0.062,0.041 0.123,0.088 0.185,0.135 0.067,0.05 0.133,0.101 0.2,0.152 0.109,0.082 0.212,0.159 0.341,0.259 0.412,0.316 0.841,0.668 1.277,1.047 0.035,0.032 0.07,0.063 0.106,0.095 0.164,0.145 0.333,0.295 0.497,0.445 0.136,0.124 0.272,0.252 0.408,0.384 0.035,0.034 0.07,0.068 0.105,0.101 l 0.521,0.508 c 0.136,0.132 0.267,0.269 0.358,0.362 0.332,0.347 0.665,0.698 1.041,1.118 0.497,0.548 1.002,1.139 1.548,1.816 0.291,0.355 0.582,0.72 0.865,1.094 0.026,0.035 0.053,0.07 0.081,0.105 0.477,0.615 0.955,1.267 1.454,1.981 l 0.508,0.741 c 0.276,0.407 0.547,0.819 0.813,1.227 0.545,0.841 1.094,1.726 1.656,2.672 0.318,0.539 0.636,1.089 0.944,1.635 1.836,3.268 3.613,6.913 5.283,10.836 0.431,1.025 0.862,2.072 1.273,3.098 0.451,1.142 0.903,2.306 1.359,3.551 0.248,0.664 0.492,1.343 0.745,2.062 -10.679,2.763 -21.698,4.175 -32.883,4.175 -9.056,0 -18.038,-0.936 -26.821,-2.763 0.137,-0.398 0.278,-0.801 0.433,-1.241 z m -5.981,20.511 c 10.591,2.314 21.438,3.49 32.372,3.49 13.117,0 26.047,-1.678 38.57,-4.981 0.152,0.617 0.303,1.242 0.457,1.899 0.814,3.404 1.583,6.956 2.276,10.515 0.182,0.958 0.365,1.927 0.533,2.829 l 0.308,1.715 c 0.106,0.585 0.207,1.171 0.308,1.759 l 0.125,0.73 c 0.087,0.498 0.168,0.998 0.259,1.551 0.463,2.816 0.907,5.796 1.321,8.873 0.131,0.963 0.256,1.931 0.379,2.934 0.046,0.365 0.088,0.736 0.133,1.103 h -82.775 c 0.046,-0.375 0.084,-0.76 0.131,-1.132 0.12,-0.975 0.245,-1.943 0.378,-2.922 0.103,-0.765 0.208,-1.526 0.314,-2.28 0.32,-2.262 0.657,-4.469 1.006,-6.589 l 0.382,-2.269 c 0.101,-0.587 0.202,-1.173 0.312,-1.784 l 0.29,-1.617 c 0.182,-0.975 0.364,-1.944 0.538,-2.859 0.702,-3.602 1.47,-7.154 2.295,-10.604 0.028,-0.121 0.059,-0.24 0.088,-0.361 z m -38.136,-37.36 c 1.21,-0.786 2.431,-1.551 3.662,-2.296 0.281,-0.17 0.564,-0.334 0.846,-0.501 0.993,-0.591 1.992,-1.169 2.997,-1.733 0.349,-0.196 0.697,-0.392 1.047,-0.585 1.263,-0.694 2.532,-1.375 3.814,-2.026 0.028,-0.014 0.056,-0.027 0.084,-0.041 1.254,-0.637 2.52,-1.247 3.792,-1.843 0.367,-0.172 0.736,-0.341 1.105,-0.51 1.044,-0.478 2.094,-0.942 3.15,-1.393 0.292,-0.125 0.582,-0.254 0.875,-0.377 1.308,-0.547 2.625,-1.073 3.949,-1.579 0.314,-0.12 0.63,-0.233 0.945,-0.35 1.058,-0.394 2.121,-0.776 3.189,-1.143 0.387,-0.133 0.774,-0.267 1.162,-0.397 1.349,-0.451 2.704,-0.887 4.068,-1.294 0.053,-0.016 0.106,-0.03 0.158,-0.045 1.039,-0.309 2.087,-0.59 3.134,-0.874 -0.07,0.112 -0.142,0.23 -0.213,0.343 -0.089,0.143 -0.18,0.29 -0.27,0.436 -0.306,0.497 -0.616,1.005 -0.937,1.546 -0.383,0.65 -0.767,1.314 -1.15,1.994 -2.195,3.906 -4.299,8.216 -6.252,12.806 -0.003,0.006 -0.005,0.012 -0.008,0.019 -0.003,0.008 -0.007,0.015 -0.01,0.023 -0.048,0.113 -0.095,0.23 -0.143,0.344 -0.436,1.034 -0.866,2.087 -1.308,3.19 -0.513,1.297 -1.024,2.62 -1.497,3.909 -0.32,0.859 -0.635,1.731 -0.955,2.645 -0.196,0.557 -0.391,1.113 -0.604,1.738 l -0.175,0.519 c -8.647,-3.241 -16.894,-7.376 -24.669,-12.383 0.072,-0.047 0.142,-0.096 0.214,-0.142 z m -22.358,18.094 c 1.788,-1.788 3.613,-3.508 5.43,-5.137 11.089,7.904 23.086,14.208 35.831,18.833 -0.108,0.448 -0.214,0.893 -0.316,1.328 -0.879,3.676 -1.708,7.506 -2.471,11.426 -0.187,0.982 -0.373,1.976 -0.572,3.04 l -0.301,1.673 c -0.117,0.646 -0.229,1.292 -0.34,1.941 l -0.408,2.419 c -0.496,3.009 -0.968,6.186 -1.404,9.427 -0.143,1.048 -0.279,2.102 -0.406,3.135 -0.149,1.189 -0.293,2.389 -0.432,3.597 h -67.021 c 6.659,-19.326 17.622,-36.907 32.41,-51.682 z m 0,192.376 c -25.703,-25.682 -39.856,-59.844 -39.856,-96.19 0,-7.068 0.546,-14.156 1.625,-21.073 0.179,-1.151 0.395,-2.29 0.602,-3.432 h 70.494 c -0.027,0.434 -0.056,0.866 -0.082,1.303 -0.021,0.35 -0.04,0.694 -0.055,1.043 l -0.043,0.821 c -0.373,6.979 -0.561,14.157 -0.561,21.337 0,7.18 0.189,14.359 0.56,21.317 0.079,1.542 0.171,3.082 0.274,4.692 0.023,0.355 0.046,0.714 0.074,1.069 0.003,0.047 0.006,0.092 0.009,0.139 l 0.043,0.694 c 0.003,0.064 0.009,0.155 0.014,0.22 0.028,0.38 0.056,0.756 0.085,1.132 h -7.334 c -5.523,0 -10,4.477 -10,10 0,5.523 4.477,10 10,10 h 9.344 c 0.508,3.931 1.072,7.804 1.689,11.558 0.118,0.706 0.235,1.412 0.352,2.073 0.809,4.751 1.738,9.5 2.757,14.099 0.272,1.235 0.549,2.459 0.837,3.686 0.144,0.611 0.293,1.207 0.44,1.81 -12.748,4.626 -24.748,10.931 -35.838,18.837 -1.862,-1.673 -3.689,-3.394 -5.43,-5.135 z m 57.272,34.222 c -0.077,-0.023 -0.155,-0.043 -0.232,-0.066 -1.357,-0.405 -2.704,-0.839 -4.046,-1.287 -0.4,-0.133 -0.799,-0.271 -1.197,-0.409 -1.049,-0.361 -2.093,-0.735 -3.133,-1.122 -0.332,-0.124 -0.666,-0.243 -0.997,-0.369 -1.314,-0.501 -2.62,-1.023 -3.919,-1.566 -0.313,-0.131 -0.622,-0.269 -0.934,-0.402 -1.032,-0.441 -2.058,-0.895 -3.079,-1.361 -0.386,-0.177 -0.773,-0.353 -1.158,-0.534 -1.227,-0.575 -2.448,-1.165 -3.658,-1.778 -0.071,-0.036 -0.142,-0.069 -0.213,-0.105 -1.268,-0.645 -2.524,-1.318 -3.774,-2.005 -0.368,-0.202 -0.734,-0.408 -1.1,-0.614 -0.98,-0.551 -1.955,-1.114 -2.923,-1.69 -0.303,-0.18 -0.607,-0.356 -0.909,-0.539 -1.219,-0.738 -2.429,-1.496 -3.629,-2.275 -0.076,-0.049 -0.151,-0.101 -0.226,-0.15 7.774,-5.007 16.021,-9.144 24.669,-12.385 0.097,0.285 0.191,0.567 0.296,0.867 0.168,0.491 0.336,0.982 0.495,1.428 0.308,0.879 0.622,1.751 0.927,2.567 0.641,1.741 1.313,3.477 2.001,5.165 0.341,0.833 0.682,1.655 1.027,2.463 1.424,3.343 2.908,6.497 4.367,9.293 0.205,0.401 0.415,0.796 0.592,1.125 0.402,0.763 0.811,1.513 1.194,2.186 0.372,0.665 0.743,1.312 1.121,1.953 0.041,0.074 0.084,0.147 0.126,0.22 h -0.001 c 0.009,0.015 0.018,0.029 0.027,0.044 h -0.001 c 0.447,0.75 0.898,1.482 1.35,2.2 -1.023,-0.277 -2.047,-0.552 -3.063,-0.854 z m 67.715,-30.705 c -0.564,1.539 -1.153,3.059 -1.742,4.505 -0.303,0.74 -0.606,1.469 -0.915,2.194 -1.22,2.865 -2.479,5.543 -3.783,8.043 -0.141,0.277 -0.287,0.549 -0.468,0.886 -0.301,0.57 -0.607,1.132 -0.959,1.752 -0.323,0.578 -0.646,1.139 -0.975,1.695 -0.041,0.069 -0.081,0.139 -0.12,0.209 -0.419,0.7 -0.843,1.381 -1.267,2.048 -0.033,0.052 -0.058,0.09 -0.089,0.143 l -0.081,0.129 c -0.473,0.726 -0.945,1.432 -1.415,2.107 -0.321,0.46 -0.643,0.906 -0.97,1.342 -0.029,0.038 -0.058,0.078 -0.086,0.117 -0.203,0.279 -0.414,0.558 -0.625,0.824 -0.039,0.049 -0.077,0.099 -0.115,0.148 -0.222,0.29 -0.454,0.574 -0.649,0.812 l -0.567,0.686 c -0.313,0.373 -0.63,0.736 -0.993,1.138 -0.46,0.515 -0.927,1.005 -1.399,1.473 -0.236,0.232 -0.472,0.464 -0.712,0.687 -0.025,0.023 -0.049,0.046 -0.074,0.069 -0.235,0.222 -0.475,0.438 -0.714,0.651 -0.012,0.01 -0.023,0.02 -0.035,0.031 l -0.442,0.378 c -0.302,0.254 -0.61,0.5 -0.921,0.74 l -0.409,0.308 c -0.01,0.007 -0.09,0.067 -0.1,0.074 -0.117,0.087 -0.237,0.17 -0.353,0.251 -0.013,0.009 -0.027,0.019 -0.04,0.028 -0.015,0.01 -0.024,0.016 -0.039,0.027 -0.058,0.041 -0.115,0.078 -0.173,0.118 -0.198,0.139 -0.396,0.272 -0.618,0.409 -0.165,0.102 -0.325,0.2 -0.489,0.297 -0.059,0.035 -0.068,0.043 -0.126,0.079 -0.157,0.081 -0.311,0.165 -0.463,0.254 -0.063,0.037 -0.127,0.07 -0.261,0.14 -0.663,0.347 -1.318,0.633 -1.948,0.849 -0.235,0.08 -0.47,0.156 -0.706,0.223 l -0.835,0.207 c -0.062,0.013 -0.074,0.015 -0.136,0.03 -0.048,0.007 -0.097,0.015 -0.145,0.023 -0.275,0.046 -0.549,0.085 -0.821,0.117 -0.207,0.021 -0.414,0.037 -0.621,0.046 -0.007,0 -0.014,10e-4 -0.021,10e-4 -0.01,0 -0.02,0.001 -0.03,0.001 -0.012,0 -0.025,10e-4 -0.036,10e-4 h -0.001 c -0.107,0.002 -0.214,0.004 -0.321,0.01 -0.022,0 -0.045,0 -0.066,0 -0.116,-0.006 -0.233,-0.009 -0.349,-0.01 -0.015,-10e-4 -0.031,-10e-4 -0.046,-0.002 -0.001,0 -0.002,0 -0.002,0 -0.212,-0.009 -0.423,-0.025 -0.634,-0.046 -0.093,-0.011 -0.189,-0.024 -0.287,-0.037 -0.044,-0.006 -0.085,-0.011 -0.131,-0.018 -0.152,-0.022 -0.313,-0.046 -0.497,-0.075 -0.062,-0.014 -0.123,-0.028 -0.185,-0.041 l -0.837,-0.207 c -0.239,-0.068 -0.477,-0.145 -0.705,-0.223 -0.63,-0.216 -1.286,-0.503 -2.019,-0.886 -0.061,-0.031 -0.123,-0.063 -0.183,-0.098 -0.155,-0.091 -0.272,-0.155 -0.432,-0.237 -0.052,-0.033 -0.105,-0.065 -0.158,-0.096 -0.145,-0.086 -0.293,-0.177 -0.456,-0.278 -0.277,-0.175 -0.554,-0.355 -0.827,-0.548 -0.031,-0.022 -0.062,-0.043 -0.092,-0.065 -0.113,-0.079 -0.23,-0.16 -0.344,-0.245 -0.01,-0.007 -0.09,-0.067 -0.1,-0.074 l -0.414,-0.311 c -0.307,-0.237 -0.615,-0.482 -0.969,-0.78 l -0.403,-0.347 c -0.005,-0.004 -0.011,-0.009 -0.016,-0.014 -0.243,-0.216 -0.487,-0.436 -0.789,-0.72 -0.121,-0.112 -0.23,-0.221 -0.346,-0.333 -0.116,-0.113 -0.24,-0.229 -0.346,-0.333 -0.502,-0.497 -0.967,-0.986 -1.476,-1.555 -0.317,-0.35 -0.634,-0.713 -0.986,-1.133 l -0.492,-0.596 c -0.249,-0.305 -0.499,-0.619 -0.791,-0.992 -0.232,-0.293 -0.459,-0.602 -0.716,-0.947 -0.327,-0.436 -0.648,-0.881 -0.963,-1.331 -0.485,-0.696 -0.965,-1.414 -1.445,-2.153 l -0.067,-0.107 c -0.026,-0.042 -0.052,-0.084 -0.079,-0.126 -0.423,-0.668 -0.848,-1.349 -1.267,-2.049 -0.04,-0.071 -0.08,-0.142 -0.122,-0.211 -0.329,-0.556 -0.651,-1.118 -1.014,-1.766 -0.315,-0.553 -0.62,-1.113 -0.954,-1.747 -0.146,-0.272 -0.292,-0.544 -0.476,-0.903 -1.261,-2.418 -2.52,-5.096 -3.743,-7.968 -0.308,-0.72 -0.609,-1.446 -0.907,-2.176 -0.599,-1.469 -1.188,-2.988 -1.765,-4.557 -0.274,-0.735 -0.543,-1.481 -0.822,-2.276 -0.142,-0.399 -0.279,-0.798 -0.415,-1.198 8.78,-1.827 17.761,-2.762 26.819,-2.762 11.183,0 22.201,1.411 32.882,4.175 -0.245,0.694 -0.492,1.385 -0.76,2.102 z m -32.12,-26.278 c -10.937,0 -21.784,1.178 -32.373,3.493 -0.067,-0.277 -0.135,-0.548 -0.201,-0.827 -0.263,-1.122 -0.521,-2.254 -0.775,-3.414 -0.952,-4.295 -1.817,-8.717 -2.578,-13.189 -0.114,-0.651 -0.223,-1.301 -0.328,-1.934 -0.444,-2.7 -0.857,-5.48 -1.243,-8.295 h 81.552 v 0.001 c -0.386,2.818 -0.799,5.595 -1.242,8.29 -0.107,0.645 -0.213,1.283 -0.337,1.984 -0.753,4.424 -1.618,8.846 -2.573,13.159 -0.251,1.143 -0.508,2.274 -0.769,3.384 -0.186,0.787 -0.376,1.558 -0.566,2.328 -12.524,-3.303 -25.452,-4.98 -38.567,-4.98 z m 73.467,43.092 c -0.996,0.603 -1.999,1.191 -3.008,1.767 -0.326,0.186 -0.653,0.372 -0.98,0.555 -1.151,0.644 -2.307,1.276 -3.473,1.885 -0.045,0.023 -0.088,0.048 -0.133,0.071 -1.207,0.628 -2.425,1.231 -3.648,1.822 -0.332,0.161 -0.666,0.318 -1,0.476 -1.022,0.483 -2.05,0.954 -3.083,1.41 -0.235,0.104 -0.468,0.212 -0.703,0.314 -1.234,0.537 -2.477,1.054 -3.726,1.553 -0.305,0.122 -0.612,0.239 -0.919,0.359 -1.017,0.398 -2.037,0.783 -3.063,1.155 -0.316,0.115 -0.631,0.232 -0.948,0.345 -1.269,0.451 -2.544,0.884 -3.827,1.296 -0.219,0.07 -0.441,0.135 -0.66,0.205 -1.097,0.346 -2.199,0.677 -3.305,0.995 -0.35,0.1 -0.7,0.201 -1.051,0.299 -0.279,0.078 -0.562,0.146 -0.842,0.223 0.448,-0.713 0.894,-1.439 1.337,-2.182 l -0.001,-10e-4 c 0.01,-0.016 0.02,-0.031 0.029,-0.048 h -0.001 c 0.035,-0.059 0.069,-0.119 0.103,-0.179 0.007,-0.012 0.014,-0.024 0.021,-0.036 0.378,-0.642 0.747,-1.286 1.086,-1.892 0.421,-0.741 0.83,-1.49 1.196,-2.185 0.211,-0.394 0.422,-0.789 0.584,-1.108 1.501,-2.878 2.985,-6.032 4.408,-9.373 0.346,-0.812 0.686,-1.629 1.031,-2.472 0.272,-0.667 0.541,-1.35 0.808,-2.033 0.401,-1.024 0.797,-2.055 1.175,-3.083 0.32,-0.859 0.635,-1.731 0.927,-2.566 0.001,-0.003 0.002,-0.005 0.003,-0.008 7.746,3.334 15.137,7.391 22.107,12.17 -0.146,0.09 -0.296,0.176 -0.444,0.266 z m 25.972,-20.338 c -1.89,1.885 -3.857,3.739 -5.84,5.507 -0.85,0.756 -1.72,1.503 -2.599,2.245 -10.318,-7.814 -21.507,-14.217 -33.417,-19.126 0.344,-1.356 0.684,-2.733 1.017,-4.143 0.285,-1.212 0.563,-2.436 0.832,-3.657 1.023,-4.618 1.952,-9.367 2.749,-14.048 0.126,-0.711 0.246,-1.429 0.366,-2.157 0.614,-3.736 1.177,-7.602 1.686,-11.54 h 65.86 c -6.781,17.48 -17.151,33.42 -30.654,46.919 z m 37.457,-70.681 c -0.239,1.261 -0.513,2.511 -0.786,3.761 h -69.87 c 0.029,-0.388 0.06,-0.773 0.089,-1.163 0.004,-0.058 0.008,-0.116 0.011,-0.173 l 0.046,-0.748 c 0.002,-0.033 0.005,-0.066 0.007,-0.099 0.01,-0.134 0.02,-0.272 0.03,-0.411 0.003,-0.045 0.007,-0.088 0.01,-0.134 0.013,-0.192 0.026,-0.392 0.04,-0.606 0.098,-1.528 0.19,-3.069 0.268,-4.591 0.373,-6.978 0.562,-14.157 0.562,-21.337 0,-7.18 -0.189,-14.358 -0.565,-21.398 l -0.04,-0.755 c -0.015,-0.351 -0.035,-0.701 -0.059,-1.113 -0.025,-0.417 -0.051,-0.831 -0.076,-1.238 h 5.339 c 5.523,0 10,-4.477 10,-10 0,-5.523 -4.477,-10 -10,-10 h -7.088 c -0.138,-1.2 -0.281,-2.391 -0.429,-3.569 -0.13,-1.061 -0.267,-2.115 -0.407,-3.147 -0.438,-3.257 -0.911,-6.434 -1.411,-9.473 -0.093,-0.567 -0.186,-1.135 -0.283,-1.693 l -0.12,-0.695 c -0.111,-0.648 -0.223,-1.295 -0.337,-1.924 l -0.315,-1.755 c -0.186,-0.999 -0.373,-1.993 -0.568,-3.018 -0.755,-3.877 -1.584,-7.707 -2.452,-11.336 -0.228,-0.972 -0.46,-1.938 -0.685,-2.825 -0.005,-0.019 -0.027,-0.11 -0.032,-0.129 -0.062,-0.248 -0.127,-0.492 -0.189,-0.739 11.913,-4.91 23.098,-11.312 33.41,-19.124 0.879,0.742 1.752,1.492 2.611,2.254 1.946,1.73 3.904,3.577 5.821,5.495 25.698,25.674 39.851,59.833 39.851,96.181 0,8.568 -0.802,17.149 -2.383,25.502 z"
         id="path81"
         style="fill:#00a6ff;stroke:#00a6ff;stroke-opacity:1;fill-opacity:1" /></g></g></svg>
