<!-- icon666.com - MILLIONS vector ICONS FREE --><svg version="1.1" id="Layer_1" xmlns="http://www.w3.org/2000/svg" xmlns:xlink="http://www.w3.org/1999/xlink" x="0px" y="0px" viewBox="0 0 512 512" style="enable-background:new 0 0 512 512;" xml:space="preserve"><g><g><path d="M255.999,0C144.383,0,53.578,90.855,53.578,202.529c0,34.461,10.493,72.19,31.187,112.14 c16.304,31.474,38.977,64.463,67.39,98.052c48.164,56.938,95.566,95.446,97.561,97.057c1.833,1.481,4.059,2.222,6.285,2.222 c2.226,0,4.452-0.741,6.285-2.222c1.995-1.611,49.397-40.12,97.56-97.057c28.413-33.589,51.086-66.578,67.39-98.052 c20.694-39.949,31.186-77.679,31.186-112.14C458.42,90.855,367.615,0,255.999,0z M344.793,399.547 c-36.926,43.694-74.286,76.983-88.788,89.393c-13.766-11.806-48.154-42.497-83.41-83.249h103.432c5.523,0,10-4.477,10-10 s-4.477-10-10-10H155.926c-42.854-53.456-82.348-119.883-82.348-183.162C73.578,101.882,155.412,20,255.999,20 S438.42,101.882,438.42,202.529C438.42,273.796,387.505,349.004,344.793,399.547z"></path></g></g><g><g><path d="M324.349,393.74c-0.13-0.64-0.32-1.27-0.57-1.87c-0.25-0.61-0.56-1.19-0.92-1.73c-0.36-0.55-0.78-1.06-1.24-1.52 c-0.46-0.46-0.97-0.88-1.52-1.24c-0.54-0.36-1.12-0.67-1.73-0.92c-0.6-0.25-1.23-0.44-1.87-0.57c-1.29-0.26-2.62-0.26-3.91,0 c-0.63,0.13-1.26,0.32-1.87,0.57c-0.6,0.25-1.18,0.56-1.72,0.92c-0.55,0.36-1.06,0.78-1.52,1.24c-0.46,0.46-0.88,0.97-1.25,1.52 c-0.36,0.54-0.67,1.12-0.92,1.73c-0.25,0.6-0.44,1.23-0.57,1.87s-0.19,1.3-0.19,1.95s0.06,1.31,0.19,1.95s0.32,1.27,0.57,1.88 c0.25,0.6,0.56,1.18,0.92,1.72c0.37,0.55,0.79,1.06,1.25,1.52c0.46,0.46,0.97,0.88,1.52,1.25c0.54,0.36,1.12,0.67,1.72,0.92 c0.61,0.25,1.24,0.44,1.87,0.57c0.65,0.13,1.31,0.19,1.96,0.19c0.65,0,1.31-0.06,1.95-0.19s1.27-0.32,1.87-0.57 c0.61-0.25,1.19-0.56,1.73-0.92c0.55-0.37,1.06-0.79,1.52-1.25c0.46-0.46,0.88-0.97,1.24-1.52c0.36-0.54,0.67-1.12,0.92-1.72 c0.25-0.61,0.44-1.24,0.57-1.88s0.2-1.3,0.2-1.95S324.479,394.38,324.349,393.74z"></path></g></g><g><g><path d="M366.286,89.537c-2.19-2.19-4.437-4.31-6.677-6.301c-3.188-2.831-6.515-5.553-9.882-8.085 c-23.558-17.738-51.065-28.234-80.239-30.711c-4.168-0.354-8.369-0.544-12.599-0.568c-0.005,0-0.009,0-0.014,0s-0.01,0-0.014,0 c-0.121-0.003-0.249-0.006-0.345-0.006h-0.428c-0.03,0-0.059,0.004-0.089,0.005c-0.03,0-0.059-0.005-0.089-0.005h-0.428 c-0.066,0-0.132,0.002-0.198,0.004c-0.022,0.001-0.044-0.001-0.066,0h-0.001c-0.003,0-0.005,0-0.008,0 c-0.036,0.001-0.073,0.002-0.109,0.003h-0.001c-35.442,0.196-68.785,11.975-96.423,34.064c-0.002,0.001-0.003,0.003-0.005,0.004 c-2.081,1.661-4.194,3.442-6.283,5.298c-2.238,1.989-4.484,4.109-6.672,6.296c-23.599,23.58-38.764,53.385-43.855,86.186 c-1.235,7.926-1.862,16.051-1.862,24.146c0,41.691,16.236,80.876,45.714,110.335c2.134,2.134,4.376,4.25,6.676,6.3 c2.04,1.812,4.156,3.594,6.282,5.291c8.651,6.914,17.861,12.819,27.519,17.674c0.115,0.058,0.231,0.112,0.347,0.17 c0.852,0.426,1.706,0.846,2.565,1.255c0.095,0.045,0.191,0.087,0.285,0.132c0.88,0.417,1.763,0.829,2.65,1.229 c0.169,0.076,0.34,0.148,0.509,0.223c0.815,0.364,1.632,0.725,2.453,1.075c0.2,0.085,0.402,0.165,0.602,0.249 c0.793,0.333,1.586,0.665,2.384,0.985c0.258,0.104,0.519,0.2,0.777,0.302c0.743,0.293,1.486,0.587,2.234,0.868 c0.286,0.108,0.575,0.208,0.862,0.314c0.723,0.267,1.446,0.536,2.173,0.792c0.305,0.108,0.612,0.208,0.918,0.313 c0.712,0.246,1.424,0.493,2.14,0.729c0.343,0.113,0.688,0.217,1.031,0.328c0.682,0.219,1.363,0.44,2.048,0.65 c0.417,0.127,0.836,0.245,1.254,0.369c0.615,0.182,1.228,0.368,1.846,0.543c0.454,0.128,0.911,0.247,1.366,0.371 c0.586,0.16,1.171,0.324,1.759,0.477c0.457,0.119,0.917,0.228,1.375,0.343c0.589,0.147,1.176,0.299,1.767,0.44 c0.49,0.117,0.983,0.223,1.474,0.335c0.563,0.128,1.124,0.261,1.689,0.383c0.548,0.118,1.099,0.225,1.649,0.338 c0.51,0.104,1.018,0.214,1.53,0.313c0.588,0.114,1.178,0.217,1.768,0.324c0.478,0.087,0.954,0.18,1.434,0.262 c0.591,0.102,1.184,0.192,1.777,0.287c0.48,0.077,0.959,0.16,1.441,0.232c0.626,0.094,1.256,0.177,1.884,0.264 c0.45,0.062,0.899,0.13,1.35,0.189c0.642,0.083,1.287,0.155,1.931,0.23c0.441,0.052,0.88,0.109,1.322,0.157 c0.654,0.071,1.311,0.13,1.967,0.193c0.434,0.042,0.866,0.089,1.3,0.127c0.692,0.06,1.386,0.109,2.08,0.16 c0.401,0.03,0.8,0.065,1.201,0.092c0.716,0.048,1.435,0.083,2.153,0.121c0.381,0.02,0.762,0.046,1.144,0.064 c0.706,0.032,1.414,0.052,2.122,0.076c0.397,0.013,0.793,0.032,1.191,0.042c0.698,0.018,1.398,0.023,2.098,0.032 c0.395,0.005,0.788,0.016,1.183,0.018c0.007,0,0.015,0.001,0.022,0.001c0.253,0.009,0.508,0.012,0.758,0.012 c0.25,0,0.504-0.003,0.758-0.012c0.724-0.003,1.445-0.018,2.167-0.031c0.329-0.006,0.659-0.006,0.988-0.014 c0.732-0.018,1.463-0.047,2.193-0.075c0.321-0.012,0.643-0.019,0.963-0.033c0.616-0.027,1.23-0.065,1.844-0.099 c0.435-0.024,0.871-0.043,1.305-0.07c0.569-0.036,1.135-0.083,1.702-0.126c0.477-0.036,0.955-0.066,1.431-0.106 c0.61-0.051,1.217-0.113,1.826-0.171c0.432-0.041,0.865-0.077,1.296-0.122c0.487-0.051,0.973-0.111,1.459-0.166 c0.551-0.063,1.103-0.12,1.653-0.189c0.361-0.045,0.72-0.098,1.081-0.145c0.672-0.088,1.344-0.174,2.013-0.271 c0.317-0.046,0.633-0.099,0.95-0.147c0.712-0.107,1.424-0.213,2.134-0.33c0.155-0.025,0.308-0.055,0.462-0.081 c0.87-0.146,1.738-0.296,2.604-0.457c0.08-0.015,0.16-0.032,0.24-0.047c23.352-4.375,45.332-14.049,64.658-28.596 c3.417-2.569,6.745-5.291,9.896-8.096c2.266-2.019,4.506-4.132,6.668-6.288c22.275-22.268,37.137-50.315,42.977-81.11 c1.813-9.58,2.732-19.413,2.732-29.226C412,158.172,395.765,118.989,366.286,89.537z M292.632,68.834 c0.371,0.104,0.743,0.211,1.116,0.318c1.07,0.308,2.135,0.628,3.197,0.962c0.252,0.079,0.506,0.154,0.758,0.235 c1.268,0.407,2.528,0.836,3.783,1.281c0.337,0.12,0.673,0.244,1.009,0.367c0.999,0.363,1.994,0.738,2.984,1.126 c0.327,0.127,0.654,0.252,0.98,0.383c1.237,0.495,2.468,1.006,3.69,1.538c0.254,0.111,0.506,0.227,0.759,0.339 c1.012,0.447,2.018,0.908,3.02,1.381c0.347,0.164,0.693,0.327,1.039,0.494c1.215,0.587,2.424,1.185,3.622,1.809 c0.06,0.031,0.119,0.064,0.178,0.095c1.149,0.601,2.289,1.223,3.424,1.858c0.335,0.188,0.669,0.378,1.003,0.568 c1.001,0.571,1.996,1.155,2.984,1.753c0.151,0.092,0.304,0.18,0.455,0.272c-6.965,4.777-14.357,8.834-22.104,12.169 c-0.303-0.866-0.613-1.726-0.908-2.516c-0.494-1.347-1.005-2.669-1.534-4.006c-0.48-1.2-0.96-2.381-1.451-3.534 c-1.956-4.594-4.06-8.904-6.26-12.819c-0.377-0.67-0.761-1.334-1.164-2.018c-0.32-0.538-0.633-1.051-0.943-1.554 c-0.073-0.119-0.148-0.239-0.221-0.356c-0.074-0.118-0.148-0.241-0.222-0.358C292.094,68.694,292.364,68.759,292.632,68.834z M300.024,199.869c0,6.826-0.179,13.646-0.534,20.29c-0.077,1.455-0.164,2.912-0.26,4.418c-0.019,0.294-0.038,0.592-0.062,0.886 c-0.007,0.086-0.013,0.172-0.017,0.259c-0.014,0.256-0.034,0.512-0.058,0.831c-0.058,0.849-0.121,1.701-0.19,2.577h-85.809 c-0.034-0.437-0.067-0.884-0.101-1.326c-0.031-0.431-0.063-0.864-0.093-1.314c-0.02-0.261-0.04-0.522-0.054-0.783 c-0.004-0.077-0.01-0.154-0.016-0.23c-0.024-0.296-0.043-0.597-0.066-0.959c-0.092-1.446-0.18-2.903-0.255-4.38 c-0.354-6.624-0.533-13.444-0.533-20.27s0.179-13.646,0.53-20.21l0.087-1.594c0.007-0.09,0.013-0.179,0.018-0.268 c0.042-0.791,0.091-1.582,0.147-2.432h86.484c0.054,0.811,0.104,1.621,0.148,2.437c0.004,0.088,0.011,0.175,0.018,0.263 l0.083,1.534C299.845,186.223,300.024,193.043,300.024,199.869z M226.329,102.435c0.268-0.754,0.536-1.5,0.832-2.293 c0.435-1.187,0.886-2.351,1.322-3.454c0.424-1.061,0.848-2.105,1.285-3.129c1.252-2.943,2.566-5.731,3.918-8.317 c0.451-0.862,0.905-1.702,1.363-2.517c0.313-0.555,0.631-1.105,0.929-1.611c0.581-0.978,1.13-1.864,1.713-2.764 c0.253-0.396,0.517-0.788,0.773-1.165l0.503-0.735c0.506-0.725,0.984-1.376,1.46-1.991c0.028-0.037,0.057-0.074,0.085-0.111 c0.28-0.373,0.571-0.735,0.91-1.148c0.498-0.618,1.002-1.209,1.548-1.811c0.327-0.366,0.66-0.717,0.948-1.017 c0.136-0.14,0.267-0.276,0.411-0.417l0.513-0.5c0.035-0.033,0.071-0.067,0.105-0.101c0.133-0.129,0.266-0.255,0.408-0.384 c0.166-0.153,0.338-0.305,0.505-0.452c0.029-0.025,0.058-0.051,0.086-0.077c0.441-0.383,0.876-0.739,1.325-1.085 c0.168-0.131,0.337-0.257,0.505-0.383c0.062-0.047,0.123-0.093,0.184-0.134c0.058-0.039,0.116-0.078,0.173-0.117 c0.105-0.073,0.212-0.144,0.318-0.215c0.134-0.092,0.267-0.18,0.401-0.264c0.118-0.076,0.234-0.152,0.359-0.23l0.133-0.081 c0.122-0.069,0.204-0.118,0.323-0.193l0.145-0.084c0.016-0.009,0.03-0.016,0.038-0.02c0.06-0.033,0.121-0.066,0.18-0.1 c0.212-0.12,0.423-0.226,0.609-0.317c0.027-0.013,0.051-0.026,0.079-0.039c0.052-0.025,0.105-0.049,0.157-0.073 c0.189-0.09,0.378-0.174,0.567-0.253c0.041-0.017,0.077-0.034,0.119-0.051c0.356-0.149,0.752-0.294,1.157-0.422 c0.123-0.039,0.244-0.073,0.354-0.104c0.008-0.002,0.016-0.005,0.025-0.007c0.23-0.064,0.464-0.118,0.697-0.167 c0.069-0.015,0.098-0.025,0.166-0.041c0.047-0.007,0.095-0.015,0.142-0.023c0.27-0.045,0.544-0.084,0.814-0.117 c0.167-0.017,0.334-0.024,0.5-0.032c0.014-0.001,0.029-0.002,0.043-0.003c0.013,0,0.026-0.001,0.039-0.002 c0.027-0.001,0.053-0.003,0.079-0.004h0.001c0.111-0.006,0.22-0.013,0.33-0.013c0.03,0,0.059-0.004,0.089-0.004 c0.03,0,0.059,0.004,0.089,0.004c0.11,0,0.22,0.006,0.33,0.013h0.001c0.026,0.001,0.053,0.003,0.079,0.004 c0.013,0.001,0.026,0.001,0.039,0.002c0.014,0.001,0.029,0.002,0.043,0.003c0.167,0.008,0.334,0.015,0.5,0.032 c0.271,0.032,0.544,0.071,0.814,0.117c0.047,0.008,0.06,0.011,0.107,0.019c0.068,0.016,0.137,0.031,0.206,0.045 c0.248,0.052,0.494,0.116,0.739,0.18c0.021,0.006,0.043,0.012,0.065,0.018c0.054,0.015,0.103,0.03,0.152,0.045 c0.033,0.01,0.07,0.021,0.108,0.033c0.422,0.135,0.815,0.277,1.21,0.443c0.247,0.102,0.495,0.215,0.742,0.332 c0.299,0.15,0.594,0.303,0.924,0.483c0.005,0.003,0.021,0.011,0.039,0.021l0.106,0.059c0.119,0.075,0.239,0.147,0.361,0.217 l0.172,0.106c0.346,0.215,0.692,0.443,1.038,0.684c0.043,0.029,0.129,0.088,0.171,0.117c0.062,0.041,0.123,0.088,0.185,0.135 c0.067,0.05,0.133,0.101,0.2,0.152c0.109,0.082,0.212,0.159,0.341,0.259c0.412,0.316,0.841,0.668,1.277,1.047 c0.035,0.032,0.07,0.063,0.106,0.095c0.164,0.145,0.333,0.295,0.497,0.445c0.136,0.124,0.272,0.252,0.408,0.384 c0.035,0.034,0.07,0.068,0.105,0.101l0.521,0.508c0.136,0.132,0.267,0.269,0.358,0.362c0.332,0.347,0.665,0.698,1.041,1.118 c0.497,0.548,1.002,1.139,1.548,1.816c0.291,0.355,0.582,0.72,0.865,1.094c0.026,0.035,0.053,0.07,0.081,0.105 c0.477,0.615,0.955,1.267,1.454,1.981l0.508,0.741c0.276,0.407,0.547,0.819,0.813,1.227c0.545,0.841,1.094,1.726,1.656,2.672 c0.318,0.539,0.636,1.089,0.944,1.635c1.836,3.268,3.613,6.913,5.283,10.836c0.431,1.025,0.862,2.072,1.273,3.098 c0.451,1.142,0.903,2.306,1.359,3.551c0.248,0.664,0.492,1.343,0.745,2.062c-10.679,2.763-21.698,4.175-32.883,4.175 c-9.056,0-18.038-0.936-26.821-2.763C226.033,103.278,226.174,102.875,226.329,102.435z M220.348,122.946 c10.591,2.314,21.438,3.49,32.372,3.49c13.117,0,26.047-1.678,38.57-4.981c0.152,0.617,0.303,1.242,0.457,1.899 c0.814,3.404,1.583,6.956,2.276,10.515c0.182,0.958,0.365,1.927,0.533,2.829l0.308,1.715c0.106,0.585,0.207,1.171,0.308,1.759 l0.125,0.73c0.087,0.498,0.168,0.998,0.259,1.551c0.463,2.816,0.907,5.796,1.321,8.873c0.131,0.963,0.256,1.931,0.379,2.934 c0.046,0.365,0.088,0.736,0.133,1.103h-82.775c0.046-0.375,0.084-0.76,0.131-1.132c0.12-0.975,0.245-1.943,0.378-2.922 c0.103-0.765,0.208-1.526,0.314-2.28c0.32-2.262,0.657-4.469,1.006-6.589l0.382-2.269c0.101-0.587,0.202-1.173,0.312-1.784 l0.29-1.617c0.182-0.975,0.364-1.944,0.538-2.859c0.702-3.602,1.47-7.154,2.295-10.604 C220.288,123.186,220.319,123.067,220.348,122.946z M182.212,85.586c1.21-0.786,2.431-1.551,3.662-2.296 c0.281-0.17,0.564-0.334,0.846-0.501c0.993-0.591,1.992-1.169,2.997-1.733c0.349-0.196,0.697-0.392,1.047-0.585 c1.263-0.694,2.532-1.375,3.814-2.026c0.028-0.014,0.056-0.027,0.084-0.041c1.254-0.637,2.52-1.247,3.792-1.843 c0.367-0.172,0.736-0.341,1.105-0.51c1.044-0.478,2.094-0.942,3.15-1.393c0.292-0.125,0.582-0.254,0.875-0.377 c1.308-0.547,2.625-1.073,3.949-1.579c0.314-0.12,0.63-0.233,0.945-0.35c1.058-0.394,2.121-0.776,3.189-1.143 c0.387-0.133,0.774-0.267,1.162-0.397c1.349-0.451,2.704-0.887,4.068-1.294c0.053-0.016,0.106-0.03,0.158-0.045 c1.039-0.309,2.087-0.59,3.134-0.874c-0.07,0.112-0.142,0.23-0.213,0.343c-0.089,0.143-0.18,0.29-0.27,0.436 c-0.306,0.497-0.616,1.005-0.937,1.546c-0.383,0.65-0.767,1.314-1.15,1.994c-2.195,3.906-4.299,8.216-6.252,12.806 c-0.003,0.006-0.005,0.012-0.008,0.019c-0.003,0.008-0.007,0.015-0.01,0.023c-0.048,0.113-0.095,0.23-0.143,0.344 c-0.436,1.034-0.866,2.087-1.308,3.19c-0.513,1.297-1.024,2.62-1.497,3.909c-0.32,0.859-0.635,1.731-0.955,2.645 c-0.196,0.557-0.391,1.113-0.604,1.738l-0.175,0.519c-8.647-3.241-16.894-7.376-24.669-12.383 C182.07,85.681,182.14,85.632,182.212,85.586z M159.854,103.68c1.788-1.788,3.613-3.508,5.43-5.137 c11.089,7.904,23.086,14.208,35.831,18.833c-0.108,0.448-0.214,0.893-0.316,1.328c-0.879,3.676-1.708,7.506-2.471,11.426 c-0.187,0.982-0.373,1.976-0.572,3.04l-0.301,1.673c-0.117,0.646-0.229,1.292-0.34,1.941l-0.408,2.419 c-0.496,3.009-0.968,6.186-1.404,9.427c-0.143,1.048-0.279,2.102-0.406,3.135c-0.149,1.189-0.293,2.389-0.432,3.597h-67.021 C134.103,136.036,145.066,118.455,159.854,103.68z M159.854,296.056c-25.703-25.682-39.856-59.844-39.856-96.19 c0-7.068,0.546-14.156,1.625-21.073c0.179-1.151,0.395-2.29,0.602-3.432h70.494c-0.027,0.434-0.056,0.866-0.082,1.303 c-0.021,0.35-0.04,0.694-0.055,1.043l-0.043,0.821c-0.373,6.979-0.561,14.157-0.561,21.337s0.189,14.359,0.56,21.317 c0.079,1.542,0.171,3.082,0.274,4.692c0.023,0.355,0.046,0.714,0.074,1.069c0.003,0.047,0.006,0.092,0.009,0.139l0.043,0.694 c0.003,0.064,0.009,0.155,0.014,0.22c0.028,0.38,0.056,0.756,0.085,1.132h-7.334c-5.523,0-10,4.477-10,10s4.477,10,10,10h9.344 c0.508,3.931,1.072,7.804,1.689,11.558c0.118,0.706,0.235,1.412,0.352,2.073c0.809,4.751,1.738,9.5,2.757,14.099 c0.272,1.235,0.549,2.459,0.837,3.686c0.144,0.611,0.293,1.207,0.44,1.81c-12.748,4.626-24.748,10.931-35.838,18.837 C163.422,299.518,161.595,297.797,159.854,296.056z M217.126,330.278c-0.077-0.023-0.155-0.043-0.232-0.066 c-1.357-0.405-2.704-0.839-4.046-1.287c-0.4-0.133-0.799-0.271-1.197-0.409c-1.049-0.361-2.093-0.735-3.133-1.122 c-0.332-0.124-0.666-0.243-0.997-0.369c-1.314-0.501-2.62-1.023-3.919-1.566c-0.313-0.131-0.622-0.269-0.934-0.402 c-1.032-0.441-2.058-0.895-3.079-1.361c-0.386-0.177-0.773-0.353-1.158-0.534c-1.227-0.575-2.448-1.165-3.658-1.778 c-0.071-0.036-0.142-0.069-0.213-0.105c-1.268-0.645-2.524-1.318-3.774-2.005c-0.368-0.202-0.734-0.408-1.1-0.614 c-0.98-0.551-1.955-1.114-2.923-1.69c-0.303-0.18-0.607-0.356-0.909-0.539c-1.219-0.738-2.429-1.496-3.629-2.275 c-0.076-0.049-0.151-0.101-0.226-0.15c7.774-5.007,16.021-9.144,24.669-12.385c0.097,0.285,0.191,0.567,0.296,0.867 c0.168,0.491,0.336,0.982,0.495,1.428c0.308,0.879,0.622,1.751,0.927,2.567c0.641,1.741,1.313,3.477,2.001,5.165 c0.341,0.833,0.682,1.655,1.027,2.463c1.424,3.343,2.908,6.497,4.367,9.293c0.205,0.401,0.415,0.796,0.592,1.125 c0.402,0.763,0.811,1.513,1.194,2.186c0.372,0.665,0.743,1.312,1.121,1.953c0.041,0.074,0.084,0.147,0.126,0.22h-0.001 c0.009,0.015,0.018,0.029,0.027,0.044h-0.001c0.447,0.75,0.898,1.482,1.35,2.2C219.166,330.855,218.142,330.58,217.126,330.278z M284.841,299.573c-0.564,1.539-1.153,3.059-1.742,4.505c-0.303,0.74-0.606,1.469-0.915,2.194 c-1.22,2.865-2.479,5.543-3.783,8.043c-0.141,0.277-0.287,0.549-0.468,0.886c-0.301,0.57-0.607,1.132-0.959,1.752 c-0.323,0.578-0.646,1.139-0.975,1.695c-0.041,0.069-0.081,0.139-0.12,0.209c-0.419,0.7-0.843,1.381-1.267,2.048 c-0.033,0.052-0.058,0.09-0.089,0.143l-0.081,0.129c-0.473,0.726-0.945,1.432-1.415,2.107c-0.321,0.46-0.643,0.906-0.97,1.342 c-0.029,0.038-0.058,0.078-0.086,0.117c-0.203,0.279-0.414,0.558-0.625,0.824c-0.039,0.049-0.077,0.099-0.115,0.148 c-0.222,0.29-0.454,0.574-0.649,0.812l-0.567,0.686c-0.313,0.373-0.63,0.736-0.993,1.138c-0.46,0.515-0.927,1.005-1.399,1.473 c-0.236,0.232-0.472,0.464-0.712,0.687c-0.025,0.023-0.049,0.046-0.074,0.069c-0.235,0.222-0.475,0.438-0.714,0.651 c-0.012,0.01-0.023,0.02-0.035,0.031l-0.442,0.378c-0.302,0.254-0.61,0.5-0.921,0.74l-0.409,0.308 c-0.01,0.007-0.09,0.067-0.1,0.074c-0.117,0.087-0.237,0.17-0.353,0.251c-0.013,0.009-0.027,0.019-0.04,0.028 c-0.015,0.01-0.024,0.016-0.039,0.027c-0.058,0.041-0.115,0.078-0.173,0.118c-0.198,0.139-0.396,0.272-0.618,0.409 c-0.165,0.102-0.325,0.2-0.489,0.297c-0.059,0.035-0.068,0.043-0.126,0.079c-0.157,0.081-0.311,0.165-0.463,0.254 c-0.063,0.037-0.127,0.07-0.261,0.14c-0.663,0.347-1.318,0.633-1.948,0.849c-0.235,0.08-0.47,0.156-0.706,0.223l-0.835,0.207 c-0.062,0.013-0.074,0.015-0.136,0.03c-0.048,0.007-0.097,0.015-0.145,0.023c-0.275,0.046-0.549,0.085-0.821,0.117 c-0.207,0.021-0.414,0.037-0.621,0.046c-0.007,0-0.014,0.001-0.021,0.001c-0.01,0-0.02,0.001-0.03,0.001 c-0.012,0-0.025,0.001-0.036,0.001h-0.001c-0.107,0.002-0.214,0.004-0.321,0.01c-0.022,0-0.045,0-0.066,0 c-0.116-0.006-0.233-0.009-0.349-0.01c-0.015-0.001-0.031-0.001-0.046-0.002c-0.001,0-0.002,0-0.002,0 c-0.212-0.009-0.423-0.025-0.634-0.046c-0.093-0.011-0.189-0.024-0.287-0.037c-0.044-0.006-0.085-0.011-0.131-0.018 c-0.152-0.022-0.313-0.046-0.497-0.075c-0.062-0.014-0.123-0.028-0.185-0.041l-0.837-0.207c-0.239-0.068-0.477-0.145-0.705-0.223 c-0.63-0.216-1.286-0.503-2.019-0.886c-0.061-0.031-0.123-0.063-0.183-0.098c-0.155-0.091-0.272-0.155-0.432-0.237 c-0.052-0.033-0.105-0.065-0.158-0.096c-0.145-0.086-0.293-0.177-0.456-0.278c-0.277-0.175-0.554-0.355-0.827-0.548 c-0.031-0.022-0.062-0.043-0.092-0.065c-0.113-0.079-0.23-0.16-0.344-0.245c-0.01-0.007-0.09-0.067-0.1-0.074l-0.414-0.311 c-0.307-0.237-0.615-0.482-0.969-0.78l-0.403-0.347c-0.005-0.004-0.011-0.009-0.016-0.014c-0.243-0.216-0.487-0.436-0.789-0.72 c-0.121-0.112-0.23-0.221-0.346-0.333c-0.116-0.113-0.24-0.229-0.346-0.333c-0.502-0.497-0.967-0.986-1.476-1.555 c-0.317-0.35-0.634-0.713-0.986-1.133l-0.492-0.596c-0.249-0.305-0.499-0.619-0.791-0.992c-0.232-0.293-0.459-0.602-0.716-0.947 c-0.327-0.436-0.648-0.881-0.963-1.331c-0.485-0.696-0.965-1.414-1.445-2.153l-0.067-0.107c-0.026-0.042-0.052-0.084-0.079-0.126 c-0.423-0.668-0.848-1.349-1.267-2.049c-0.04-0.071-0.08-0.142-0.122-0.211c-0.329-0.556-0.651-1.118-1.014-1.766 c-0.315-0.553-0.62-1.113-0.954-1.747c-0.146-0.272-0.292-0.544-0.476-0.903c-1.261-2.418-2.52-5.096-3.743-7.968 c-0.308-0.72-0.609-1.446-0.907-2.176c-0.599-1.469-1.188-2.988-1.765-4.557c-0.274-0.735-0.543-1.481-0.822-2.276 c-0.142-0.399-0.279-0.798-0.415-1.198c8.78-1.827,17.761-2.762,26.819-2.762c11.183,0,22.201,1.411,32.882,4.175 C285.356,298.165,285.109,298.856,284.841,299.573z M252.721,273.295c-10.937,0-21.784,1.178-32.373,3.493 c-0.067-0.277-0.135-0.548-0.201-0.827c-0.263-1.122-0.521-2.254-0.775-3.414c-0.952-4.295-1.817-8.717-2.578-13.189 c-0.114-0.651-0.223-1.301-0.328-1.934c-0.444-2.7-0.857-5.48-1.243-8.295h81.552v0.001c-0.386,2.818-0.799,5.595-1.242,8.29 c-0.107,0.645-0.213,1.283-0.337,1.984c-0.753,4.424-1.618,8.846-2.573,13.159c-0.251,1.143-0.508,2.274-0.769,3.384 c-0.186,0.787-0.376,1.558-0.566,2.328C278.764,274.972,265.836,273.295,252.721,273.295z M326.188,316.387 c-0.996,0.603-1.999,1.191-3.008,1.767c-0.326,0.186-0.653,0.372-0.98,0.555c-1.151,0.644-2.307,1.276-3.473,1.885 c-0.045,0.023-0.088,0.048-0.133,0.071c-1.207,0.628-2.425,1.231-3.648,1.822c-0.332,0.161-0.666,0.318-1,0.476 c-1.022,0.483-2.05,0.954-3.083,1.41c-0.235,0.104-0.468,0.212-0.703,0.314c-1.234,0.537-2.477,1.054-3.726,1.553 c-0.305,0.122-0.612,0.239-0.919,0.359c-1.017,0.398-2.037,0.783-3.063,1.155c-0.316,0.115-0.631,0.232-0.948,0.345 c-1.269,0.451-2.544,0.884-3.827,1.296c-0.219,0.07-0.441,0.135-0.66,0.205c-1.097,0.346-2.199,0.677-3.305,0.995 c-0.35,0.1-0.7,0.201-1.051,0.299c-0.279,0.078-0.562,0.146-0.842,0.223c0.448-0.713,0.894-1.439,1.337-2.182l-0.001-0.001 c0.01-0.016,0.02-0.031,0.029-0.048h-0.001c0.035-0.059,0.069-0.119,0.103-0.179c0.007-0.012,0.014-0.024,0.021-0.036 c0.378-0.642,0.747-1.286,1.086-1.892c0.421-0.741,0.83-1.49,1.196-2.185c0.211-0.394,0.422-0.789,0.584-1.108 c1.501-2.878,2.985-6.032,4.408-9.373c0.346-0.812,0.686-1.629,1.031-2.472c0.272-0.667,0.541-1.35,0.808-2.033 c0.401-1.024,0.797-2.055,1.175-3.083c0.32-0.859,0.635-1.731,0.927-2.566c0.001-0.003,0.002-0.005,0.003-0.008 c7.746,3.334,15.137,7.391,22.107,12.17C326.486,316.211,326.336,316.297,326.188,316.387z M352.16,296.049 c-1.89,1.885-3.857,3.739-5.84,5.507c-0.85,0.756-1.72,1.503-2.599,2.245c-10.318-7.814-21.507-14.217-33.417-19.126 c0.344-1.356,0.684-2.733,1.017-4.143c0.285-1.212,0.563-2.436,0.832-3.657c1.023-4.618,1.952-9.367,2.749-14.048 c0.126-0.711,0.246-1.429,0.366-2.157c0.614-3.736,1.177-7.602,1.686-11.54h65.86C376.033,266.61,365.663,282.55,352.16,296.049z M389.617,225.368c-0.239,1.261-0.513,2.511-0.786,3.761h-69.87c0.029-0.388,0.06-0.773,0.089-1.163 c0.004-0.058,0.008-0.116,0.011-0.173l0.046-0.748c0.002-0.033,0.005-0.066,0.007-0.099c0.01-0.134,0.02-0.272,0.03-0.411 c0.003-0.045,0.007-0.088,0.01-0.134c0.013-0.192,0.026-0.392,0.04-0.606c0.098-1.528,0.19-3.069,0.268-4.591 c0.373-6.978,0.562-14.157,0.562-21.337s-0.189-14.358-0.565-21.398l-0.04-0.755c-0.015-0.351-0.035-0.701-0.059-1.113 c-0.025-0.417-0.051-0.831-0.076-1.238h5.339c5.523,0,10-4.477,10-10s-4.477-10-10-10h-7.088c-0.138-1.2-0.281-2.391-0.429-3.569 c-0.13-1.061-0.267-2.115-0.407-3.147c-0.438-3.257-0.911-6.434-1.411-9.473c-0.093-0.567-0.186-1.135-0.283-1.693l-0.12-0.695 c-0.111-0.648-0.223-1.295-0.337-1.924l-0.315-1.755c-0.186-0.999-0.373-1.993-0.568-3.018c-0.755-3.877-1.584-7.707-2.452-11.336 c-0.228-0.972-0.46-1.938-0.685-2.825c-0.005-0.019-0.027-0.11-0.032-0.129c-0.062-0.248-0.127-0.492-0.189-0.739 c11.913-4.91,23.098-11.312,33.41-19.124c0.879,0.742,1.752,1.492,2.611,2.254c1.946,1.73,3.904,3.577,5.821,5.495 C377.847,129.359,392,163.518,392,199.866C392,208.434,391.198,217.015,389.617,225.368z"></path></g></g><g><g><path d="M373.769,163.41c-0.13-0.64-0.32-1.27-0.57-1.87c-0.25-0.61-0.56-1.19-0.92-1.73c-0.37-0.55-0.79-1.06-1.25-1.52 c-0.46-0.46-0.97-0.88-1.52-1.24c-0.54-0.36-1.12-0.67-1.72-0.92c-0.61-0.25-1.24-0.44-1.87-0.57c-1.29-0.26-2.62-0.26-3.91,0 c-0.64,0.13-1.27,0.32-1.87,0.57c-0.61,0.25-1.19,0.56-1.73,0.92c-0.55,0.36-1.06,0.78-1.52,1.24c-0.46,0.46-0.88,0.97-1.24,1.52 c-0.36,0.54-0.67,1.12-0.92,1.73c-0.25,0.6-0.44,1.23-0.57,1.87c-0.13,0.64-0.2,1.3-0.2,1.95c0,0.65,0.07,1.31,0.2,1.96 c0.13,0.63,0.32,1.26,0.57,1.87c0.25,0.6,0.56,1.18,0.92,1.72c0.36,0.55,0.78,1.06,1.24,1.52c0.46,0.46,0.97,0.88,1.52,1.25 c0.54,0.36,1.12,0.67,1.73,0.92c0.6,0.25,1.23,0.44,1.87,0.57c0.64,0.13,1.3,0.19,1.95,0.19s1.31-0.06,1.96-0.19 c0.63-0.13,1.26-0.32,1.87-0.57c0.6-0.25,1.18-0.56,1.72-0.92c0.55-0.37,1.06-0.79,1.52-1.25c0.46-0.46,0.88-0.97,1.25-1.52 c0.36-0.54,0.67-1.12,0.92-1.72c0.25-0.61,0.44-1.24,0.57-1.87c0.13-0.65,0.19-1.31,0.19-1.96 C373.959,164.71,373.899,164.05,373.769,163.41z"></path></g></g><g><g><path d="M154.599,237.18c-0.12-0.64-0.32-1.27-0.57-1.87c-0.25-0.61-0.55-1.191-0.91-1.73c-0.37-0.55-0.79-1.06-1.25-1.52 s-0.97-0.88-1.52-1.24c-0.54-0.36-1.12-0.67-1.73-0.92c-0.6-0.25-1.23-0.45-1.87-0.57c-1.29-0.26-2.61-0.26-3.9,0 c-0.64,0.12-1.27,0.32-1.87,0.57c-0.61,0.25-1.19,0.56-1.73,0.92c-0.55,0.36-1.06,0.78-1.52,1.24c-0.46,0.46-0.88,0.97-1.24,1.52 c-0.36,0.539-0.67,1.12-0.92,1.73c-0.25,0.6-0.45,1.23-0.57,1.87c-0.13,0.64-0.2,1.3-0.2,1.95c0,0.65,0.07,1.31,0.2,1.95 c0.12,0.64,0.32,1.27,0.57,1.87c0.25,0.61,0.56,1.19,0.92,1.73c0.36,0.55,0.78,1.06,1.24,1.52c0.46,0.46,0.97,0.88,1.52,1.24 c0.54,0.36,1.12,0.67,1.73,0.92c0.6,0.25,1.23,0.45,1.87,0.57c0.64,0.13,1.3,0.2,1.95,0.2c0.65,0,1.31-0.07,1.95-0.2 c0.64-0.12,1.27-0.32,1.87-0.57c0.61-0.25,1.191-0.56,1.73-0.92c0.55-0.36,1.06-0.78,1.52-1.24c0.46-0.46,0.88-0.97,1.25-1.52 c0.36-0.54,0.66-1.12,0.91-1.73c0.25-0.6,0.45-1.23,0.57-1.87c0.13-0.64,0.2-1.3,0.2-1.95 C154.799,238.48,154.729,237.82,154.599,237.18z"></path></g></g></svg>